<svg xmlns="http://www.w3.org/2000/svg" version="1.1" xmlns:xlink="http://www.w3.org/1999/xlink" xmlns:svgjs="http://svgjs.com/svgjs" width="1920" height="1080" preserveAspectRatio="none" viewBox="0 0 1920 1080"><g mask="url(&quot;#SvgjsMask1045&quot;)" fill="none"><rect width="1920" height="1080" x="0" y="0" fill="#0e2a47"></rect><path d="M1222.7662050208255 425.6583913963531L1145.7864517634807 173.00804055986913 985.4035317523987 339.08941604559277z" fill="rgba(28, 83, 142, 0.4)" class="triangle-float2"></path><path d="M1017.5447489224796 649.6063069773377L1102.3345565623504 354.9691641406849 841.1916328494913 415.25875856351354z" fill="rgba(28, 83, 142, 0.4)" class="triangle-float2"></path><path d="M616.7647535737783 135.7443512375807L489.33671896571417-114.34724818007982 366.6731541561178 263.17238584564484z" fill="rgba(28, 83, 142, 0.4)" class="triangle-float2"></path><path d="M669.6313898681886 379.2334958440659L763.6405429079168 291.5685423994951 585.1385362211964 194.3872895621882z" fill="rgba(28, 83, 142, 0.4)" class="triangle-float3"></path><path d="M122.42611577646043 811.3075360819433L337.3026719826579 856.9809580526278 168.09953774714484 596.4309798757458z" fill="rgba(28, 83, 142, 0.4)" class="triangle-float3"></path><path d="M1966.6561910728824 152.08183374052828L1897.141102721838-19.974047551213488 1673.8148249597475 170.32652562122377z" fill="rgba(28, 83, 142, 0.4)" class="triangle-float1"></path><path d="M277.57370848130245 398.3833132212451L220.130928481171 586.2701805976834 465.46057585774076 455.82609322137654z" fill="rgba(28, 83, 142, 0.4)" class="triangle-float3"></path><path d="M143.46407371915882 1051.6017747735755L172.86962049167118 933.6625684381863-18.74196239766877 948.5238514471125z" fill="rgba(28, 83, 142, 0.4)" class="triangle-float2"></path><path d="M187.88144794856947 308.43865925058003L52.91050849870874 152.87317391611796-8.666020150797834 322.0532959490379z" fill="rgba(28, 83, 142, 0.4)" class="triangle-float1"></path><path d="M293.774107906415 861.7059190223665L-53.55942865074982 980.9323059808814 185.00044388427023 1195.7325800185906z" fill="rgba(28, 83, 142, 0.4)" class="triangle-float3"></path><path d="M915.1297454043952 966.6015267047123L799.5044624581344 842.6085911853918 791.1368098850746 1082.226809650973z" fill="rgba(28, 83, 142, 0.4)" class="triangle-float2"></path><path d="M1338.2267702624404 603.2645551001741L1307.7834630904879 795.4760318688066 1611.3223318294126 745.035254242419z" fill="rgba(28, 83, 142, 0.4)" class="triangle-float3"></path><path d="M1642.4204469773997 475.41771136362433L1601.0370892582043 736.7019488455336 1903.704684459309 516.8010690828197z" fill="rgba(28, 83, 142, 0.4)" class="triangle-float3"></path><path d="M795.0004934202414 374.8579543701377L939.5558020360418 325.08356996610814 792.6165711220973 133.13779924442247z" fill="rgba(28, 83, 142, 0.4)" class="triangle-float3"></path><path d="M892.937266725659 813.9549278161742L881.2268551568914 1037.4028916293844 1116.3852305388693 825.6653393849418z" fill="rgba(28, 83, 142, 0.4)" class="triangle-float2"></path><path d="M651.5944316512396 387.96149623061604L706.2069679933416 566.5910537272409 946.8450360672279 395.35747046577546z" fill="rgba(28, 83, 142, 0.4)" class="triangle-float1"></path><path d="M1311.893542730098 370.9204787908427L1277.9287410709132 518.0381977524482 1515.587720342914 495.42654076042265z" fill="rgba(28, 83, 142, 0.4)" class="triangle-float2"></path><path d="M1894.6826105725174 853.1773864818297L1613.7194778762694 838.184219856956 1721.539237071707 1059.2474863335165z" fill="rgba(28, 83, 142, 0.4)" class="triangle-float1"></path><path d="M892.253065357166 930.066273195905L918.3695659546892 634.7946147839073 681.6502559711008 740.1888419550442z" fill="rgba(28, 83, 142, 0.4)" class="triangle-float2"></path><path d="M821.8418057142899 750.6569094332943L1086.0617029354323 736.8097313775407 807.9946276585363 486.43701221215196z" fill="rgba(28, 83, 142, 0.4)" class="triangle-float1"></path></g><defs><mask id="SvgjsMask1045"><rect width="1920" height="1080" fill="#ffffff"></rect></mask><style>
            @keyframes float1 {
                0%{transform: translate(0, 0)}
                50%{transform: translate(-10px, 0)}
                100%{transform: translate(0, 0)}
            }

            .triangle-float1 {
                animation: float1 5s infinite;
            }

            @keyframes float2 {
                0%{transform: translate(0, 0)}
                50%{transform: translate(-5px, -5px)}
                100%{transform: translate(0, 0)}
            }

            .triangle-float2 {
                animation: float2 4s infinite;
            }

            @keyframes float3 {
                0%{transform: translate(0, 0)}
                50%{transform: translate(0, -10px)}
                100%{transform: translate(0, 0)}
            }

            .triangle-float3 {
                animation: float3 6s infinite;
            }
        </style></defs></svg>