<?xml version="1.0" encoding="UTF-8" standalone="no"?>
<svg
   xmlns:dc="http://purl.org/dc/elements/1.1/"
   xmlns:cc="http://creativecommons.org/ns#"
   xmlns:rdf="http://www.w3.org/1999/02/22-rdf-syntax-ns#"
   xmlns:svg="http://www.w3.org/2000/svg"
   xmlns="http://www.w3.org/2000/svg"
   xmlns:sodipodi="http://sodipodi.sourceforge.net/DTD/sodipodi-0.dtd"
   xmlns:inkscape="http://www.inkscape.org/namespaces/inkscape"
   width="210mm"
   height="297mm"
   viewBox="0 0 210 297"
   version="1.1"
   id="svg8"
   sodipodi:docname="star_filled.svg"
   inkscape:version="1.0.2-2 (e86c870879, 2021-01-15)">
  <defs
     id="defs2" />
  <sodipodi:namedview
     id="base"
     pagecolor="#ffffff"
     bordercolor="#666666"
     borderopacity="1.0"
     inkscape:pageopacity="0.0"
     inkscape:pageshadow="2"
     inkscape:zoom="0.70710678"
     inkscape:cx="240.88857"
     inkscape:cy="151.45883"
     inkscape:document-units="mm"
     inkscape:current-layer="layer1"
     inkscape:document-rotation="0"
     showgrid="false"
     inkscape:window-width="1920"
     inkscape:window-height="1009"
     inkscape:window-x="-8"
     inkscape:window-y="-8"
     inkscape:window-maximized="1" />
  <metadata
     id="metadata5">
    <rdf:RDF>
      <cc:Work
         rdf:about="">
        <dc:format>image/svg+xml</dc:format>
        <dc:type
           rdf:resource="http://purl.org/dc/dcmitype/StillImage" />
      </cc:Work>
    </rdf:RDF>
  </metadata>
  <g
     inkscape:label="Warstwa 1"
     inkscape:groupmode="layer"
     id="layer1">
    <path
       style="fill:#000000;stroke-width:0.371381"
       d="m 13.964692,62.72958 c -1.500863,-0.680402 -3.015136,-2.528511 -3.558928,-4.343523 -0.379186,-1.26561 -0.273026,-2.463228 0.76391,-8.617874 0.662363,-3.931385 1.289635,-7.454576 1.393939,-7.829307 C 12.703837,41.435122 11.248636,39.741399 6.9796971,35.439705 -0.13520231,28.270223 -0.94622976,26.641279 0.75478158,22.937004 2.1465068,19.906254 3.4039593,19.387986 12.510465,18.091889 c 3.873846,-0.551352 7.281239,-1.130159 7.571986,-1.286216 0.290748,-0.156072 2.212644,-3.603325 4.270883,-7.6605753 3.516726,-6.9322655 3.839012,-7.4297594 5.347859,-8.2552851 2.229881,-1.22000608 4.717467,-1.18417102 6.907912,0.0995184 1.57092,0.9206227 1.887121,1.411351 5.391945,8.3680961 3.285336,6.5210959 3.84396,7.4156249 4.750447,7.6068429 0.565004,0.11917 3.95191,0.637381 7.526452,1.151509 3.574544,0.514141 6.833413,1.034809 7.241932,1.157052 2.407678,0.720449 4.625952,3.81317 4.625952,6.449524 0,2.399208 -1.213169,4.111108 -6.807544,9.606139 -4.727203,4.643244 -5.43172,5.487732 -5.43172,6.510891 0,0.646603 0.499404,4.011421 1.109783,7.4774 1.308398,7.429576 1.344039,8.305535 0.411884,10.123199 -1.356752,2.645618 -3.24475,3.791863 -6.245634,3.791863 -1.429472,0 -2.799416,-0.569389 -8.488627,-3.528118 -3.731233,-1.940469 -7.143248,-3.528132 -7.58225,-3.528132 -0.439006,0 -3.669127,1.532851 -7.178048,3.406324 -5.676679,3.030876 -6.625456,3.42036 -8.608144,3.533704 -1.366573,0.07818 -2.666262,-0.07117 -3.360841,-0.386045 z m 10.974154,-7.69276 c 5.508306,-2.972625 5.860448,-3.10708 8.170383,-3.119306 2.343927,-0.01263 2.600285,0.08689 8.834268,3.422479 3.723667,1.992404 6.858205,3.435281 7.462906,3.435281 0.585145,0 1.3501,-0.339766 1.743397,-0.774349 0.688332,-0.760607 0.679383,-0.900733 -0.504251,-7.891853 -1.334605,-7.882842 -1.449036,-9.833024 -0.663851,-11.313982 0.292437,-0.551562 3.049941,-3.507582 6.127788,-6.568918 5.824934,-5.793699 6.210959,-6.414671 4.946168,-7.956632 C 60.49813,23.589839 59.332896,23.319441 52.859051,22.367475 45.247734,21.248237 43.807894,20.828856 42.369278,19.312063 41.935449,18.854657 40.01897,15.36907 38.110433,11.566315 34.467147,4.3070424 34.06581,3.8369477 32.137589,4.5700574 c -0.683645,0.2599129 -1.659626,1.9236673 -4.179487,7.1247336 -1.80816,3.732095 -3.649845,7.159866 -4.092634,7.617272 -1.502597,1.552193 -3.098621,2.021768 -10.581192,3.1132 -6.3191109,0.921732 -7.5718022,1.209128 -8.1214724,1.863227 -1.2704489,1.51181 -0.8728748,2.14985 4.9461664,7.937682 3.077847,3.061336 5.835352,6.017356 6.127788,6.568918 0.782736,1.47634 0.674696,3.415854 -0.631297,11.332931 -1.261829,7.649332 -1.241322,7.948336 0.593035,8.646607 0.969584,0.369075 1.743638,0.03804 8.74035,-3.737808 z"
       id="path40" />
  </g>
</svg>
